<svg width="20" height="20" viewBox="0 0 20 20" fill="none" xmlns="http://www.w3.org/2000/svg">
<path d="M9.99968 3.30029C13.683 3.30029 16.6663 6.28363 16.6663 9.96697C16.666 11.3638 16.2276 12.7254 15.4129 13.86C14.5981 14.9946 13.4481 15.8452 12.1247 16.292C11.7913 16.3586 11.6663 16.1503 11.6663 15.9753C11.6663 15.7503 11.6747 15.0336 11.6747 14.142C11.6747 13.517 11.4663 13.117 11.2247 12.9086C12.708 12.742 14.2663 12.1753 14.2663 9.61697C14.2663 8.88364 14.008 8.29196 13.583 7.82529C13.6497 7.65863 13.883 6.97529 13.5163 6.05863C13.5163 6.05863 12.958 5.87529 11.683 6.74196C11.1497 6.59196 10.583 6.51696 10.0163 6.51696C9.44968 6.51696 8.88301 6.59196 8.34968 6.74196C7.07468 5.88363 6.51634 6.05863 6.51634 6.05863C6.14968 6.97529 6.38301 7.65863 6.44968 7.82529C6.02468 8.29196 5.76634 8.89197 5.76634 9.61697C5.76634 12.167 7.31634 12.742 8.79967 12.9086C8.60801 13.0753 8.43301 13.367 8.37468 13.8003C7.99134 13.9753 7.03301 14.2586 6.43301 13.2503C6.30801 13.0503 5.93301 12.5586 5.40801 12.567C4.84968 12.5753 5.18301 12.8836 5.41634 13.0086C5.69968 13.167 6.02468 13.7586 6.09968 13.9503C6.23301 14.3253 6.66634 15.042 8.34134 14.7336C8.34134 15.292 8.34968 15.817 8.34968 15.9753C8.34968 16.1503 8.22468 16.3503 7.89134 16.292C6.56354 15.85 5.40862 15.0012 4.59042 13.8658C3.77222 12.7305 3.33228 11.3664 3.33301 9.96697C3.33301 6.28363 6.31634 3.30029 9.99968 3.30029Z" fill="#292929" style="fill:#292929;fill:color(display-p3 0.1600 0.1600 0.1600);fill-opacity:1;"/>
</svg>
