<svg width="24" height="24" viewBox="0 0 24 24" fill="none" xmlns="http://www.w3.org/2000/svg">
<path d="M14.9016 3.2501C14.9016 3.74715 14.4986 4.1501 14.0016 4.1501C13.5045 4.1501 13.1016 3.74715 13.1016 3.2501C13.1016 2.75304 13.5045 2.3501 14.0016 2.3501C14.4986 2.3501 14.9016 2.75304 14.9016 3.2501Z" fill="#fea700" style="fill:#fea700;fill:color(display-p3 0.9961 0.6549 0.0000);fill-opacity:1;"/>
<path d="M14.0016 7.4001C14.4986 7.4001 14.9016 6.99715 14.9016 6.5001C14.9016 6.00304 14.4986 5.6001 14.0016 5.6001C13.5045 5.6001 13.1016 6.00304 13.1016 6.5001C13.1016 6.99715 13.5045 7.4001 14.0016 7.4001Z" fill="#fea700" style="fill:#fea700;fill:color(display-p3 0.9961 0.6549 0.0000);fill-opacity:1;"/>
<path d="M17 5.75C17.4142 5.75 17.75 5.41421 17.75 5C17.75 4.58579 17.4142 4.25 17 4.25C16.5858 4.25 16.25 4.58579 16.25 5C16.25 5.41421 16.5858 5.75 17 5.75Z" fill="#fea700" style="fill:#fea700;fill:color(display-p3 0.9961 0.6549 0.0000);fill-opacity:1;"/>
<path d="M17 8.75C17.4142 8.75 17.75 8.41421 17.75 8C17.75 7.58579 17.4142 7.25 17 7.25C16.5858 7.25 16.25 7.58579 16.25 8C16.25 8.41421 16.5858 8.75 17 8.75Z" fill="#fea700" style="fill:#fea700;fill:color(display-p3 0.9961 0.6549 0.0000);fill-opacity:1;"/>
<path d="M14.0016 10.6501C14.4986 10.6501 14.9016 10.2472 14.9016 9.7501C14.9016 9.25304 14.4986 8.8501 14.0016 8.8501C13.5045 8.8501 13.1016 9.25304 13.1016 9.7501C13.1016 10.2472 13.5045 10.6501 14.0016 10.6501Z" fill="#fea700" style="fill:#fea700;fill:color(display-p3 0.9961 0.6549 0.0000);fill-opacity:1;"/>
<path d="M14.0016 13.9001C14.4986 13.9001 14.9016 13.4972 14.9016 13.0001C14.9016 12.503 14.4986 12.1001 14.0016 12.1001C13.5045 12.1001 13.1016 12.503 13.1016 13.0001C13.1016 13.4972 13.5045 13.9001 14.0016 13.9001Z" fill="#fea700" style="fill:#fea700;fill:color(display-p3 0.9961 0.6549 0.0000);fill-opacity:1;"/>
<path d="M17 13.75C17.4142 13.75 17.75 13.4142 17.75 13C17.75 12.5858 17.4142 12.25 17 12.25C16.5858 12.25 16.25 12.5858 16.25 13C16.25 13.4142 16.5858 13.75 17 13.75Z" fill="#fea700" style="fill:#fea700;fill:color(display-p3 0.9961 0.6549 0.0000);fill-opacity:1;"/>
<path d="M20 17.25C20.4142 17.25 20.75 16.9142 20.75 16.5C20.75 16.0858 20.4142 15.75 20 15.75C19.5858 15.75 19.25 16.0858 19.25 16.5C19.25 16.9142 19.5858 17.25 20 17.25Z" fill="#fea700" style="fill:#fea700;fill:color(display-p3 0.9961 0.6549 0.0000);fill-opacity:1;"/>
<path d="M14.0016 17.4001C14.4986 17.4001 14.9016 16.9972 14.9016 16.5001C14.9016 16.003 14.4986 15.6001 14.0016 15.6001C13.5045 15.6001 13.1016 16.003 13.1016 16.5001C13.1016 16.9972 13.5045 17.4001 14.0016 17.4001Z" fill="#fea700" style="fill:#fea700;fill:color(display-p3 0.9961 0.6549 0.0000);fill-opacity:1;"/>
<path d="M17.0016 17.4001C17.4986 17.4001 17.9016 16.9972 17.9016 16.5001C17.9016 16.003 17.4986 15.6001 17.0016 15.6001C16.5045 15.6001 16.1016 16.003 16.1016 16.5001C16.1016 16.9972 16.5045 17.4001 17.0016 17.4001Z" fill="#fea700" style="fill:#fea700;fill:color(display-p3 0.9961 0.6549 0.0000);fill-opacity:1;"/>
<path d="M14.0016 20.9001C14.4986 20.9001 14.9016 20.4972 14.9016 20.0001C14.9016 19.503 14.4986 19.1001 14.0016 19.1001C13.5045 19.1001 13.1016 19.503 13.1016 20.0001C13.1016 20.4972 13.5045 20.9001 14.0016 20.9001Z" fill="#fea700" style="fill:#fea700;fill:color(display-p3 0.9961 0.6549 0.0000);fill-opacity:1;"/>
<path d="M17.0016 20.9001C17.4986 20.9001 17.9016 20.4972 17.9016 20.0001C17.9016 19.503 17.4986 19.1001 17.0016 19.1001C16.5045 19.1001 16.1016 19.503 16.1016 20.0001C16.1016 20.4972 16.5045 20.9001 17.0016 20.9001Z" fill="#fea700" style="fill:#fea700;fill:color(display-p3 0.9961 0.6549 0.0000);fill-opacity:1;"/>
<path d="M20.0016 20.9001C20.4986 20.9001 20.9016 20.4972 20.9016 20.0001C20.9016 19.503 20.4986 19.1001 20.0016 19.1001C19.5045 19.1001 19.1016 19.503 19.1016 20.0001C19.1016 20.4972 19.5045 20.9001 20.0016 20.9001Z" fill="#fea700" style="fill:#fea700;fill:color(display-p3 0.9961 0.6549 0.0000);fill-opacity:1;"/>
<path d="M12 10.25C9.92893 10.25 8.25 8.57107 8.25 6.5C8.25 4.42893 9.92893 2.75 12 2.75" stroke="#F46021" style="stroke:#F46021;stroke:color(display-p3 0.9569 0.3765 0.1294);stroke-opacity:1;" stroke-width="1.25"/>
<path d="M12 13.25C7.8098 13.25 4.86894 16.3254 4.5 20.25H12" stroke="#F46021" style="stroke:#F46021;stroke:color(display-p3 0.9569 0.3765 0.1294);stroke-opacity:1;" stroke-width="1.25"/>
</svg>
